<svg width="53" height="32" viewBox="0 0 53 32" fill="none" xmlns="http://www.w3.org/2000/svg">
<path d="M20.9497 0.131348H8.80787C7.53306 0.131348 6.49955 1.16486 6.49955 2.43967C6.49955 3.71448 7.53306 4.748 8.80787 4.748H14.3534C15.5842 4.748 16.5821 5.74576 16.5821 6.97675C16.5821 8.2076 15.5842 9.20551 14.3534 9.20551H2.44016C1.16535 9.20551 0.131836 10.239 0.131836 11.5138C0.131836 12.7886 1.16535 13.8222 2.44016 13.8222H11.1695C12.4004 13.8222 13.3983 14.8199 13.3983 16.0509C13.3983 17.2818 12.4004 18.2797 11.1695 18.2797H2.44016C1.16535 18.2797 0.131836 19.3132 0.131836 20.588C0.131836 21.8628 1.16535 22.8963 2.44016 22.8963H14.3535C15.5844 22.8963 16.5823 23.8941 16.5823 25.1251C16.5823 26.3559 15.5844 27.3538 14.3535 27.3538H8.80816C7.53335 27.3538 6.49984 28.3874 6.49984 29.6622C6.49984 30.937 7.53335 31.9705 8.80816 31.9705H20.95C29.7422 31.9705 36.8696 24.843 36.8696 16.0509V16.0508C36.8693 7.25884 29.7418 0.131348 20.9497 0.131348Z" fill="#FF8057"/>
</svg>
